<mxfile host="app.diagrams.net" modified="2023-03-30T12:17:36.227Z" agent="Mozilla/5.0 (Windows NT 10.0; Win64; x64) AppleWebKit/537.36 (KHTML, like Gecko) Chrome/111.0.0.0 Safari/537.36" etag="pcy8cBcnHN6c8ZklUxMZ" version="21.1.1" type="device">
  <diagram id="-yvvxdIRiSZqIgFsMrdo" name="Page-1">
    <mxGraphModel dx="1309" dy="603" grid="1" gridSize="10" guides="1" tooltips="1" connect="1" arrows="1" fold="1" page="1" pageScale="1" pageWidth="850" pageHeight="1100" math="0" shadow="0">
      <root>
        <mxCell id="0" />
        <mxCell id="1" parent="0" />
        <mxCell id="62" value="" style="shape=note;whiteSpace=wrap;html=1;backgroundOutline=1;darkOpacity=0.05;fillColor=none;size=82;" parent="1" vertex="1">
          <mxGeometry x="40" y="930" width="670" height="1020" as="geometry" />
        </mxCell>
        <mxCell id="38" value="" style="rounded=0;whiteSpace=wrap;html=1;" parent="1" vertex="1">
          <mxGeometry x="80" y="60" width="540" height="760" as="geometry" />
        </mxCell>
        <mxCell id="9" style="edgeStyle=none;html=1;exitX=1;exitY=0.3333333333333333;exitDx=0;exitDy=0;exitPerimeter=0;entryX=0;entryY=0.5;entryDx=0;entryDy=0;" parent="1" source="2" target="11" edge="1">
          <mxGeometry relative="1" as="geometry">
            <mxPoint x="150" y="190" as="targetPoint" />
          </mxGeometry>
        </mxCell>
        <mxCell id="12" style="edgeStyle=none;html=1;exitX=0.5;exitY=0.5;exitDx=0;exitDy=0;exitPerimeter=0;" parent="1" source="2" target="13" edge="1">
          <mxGeometry relative="1" as="geometry">
            <mxPoint x="160" y="290" as="targetPoint" />
          </mxGeometry>
        </mxCell>
        <mxCell id="21" style="edgeStyle=none;html=1;" parent="1" source="2" target="22" edge="1">
          <mxGeometry relative="1" as="geometry">
            <mxPoint x="260" y="450" as="targetPoint" />
          </mxGeometry>
        </mxCell>
        <mxCell id="23" style="edgeStyle=none;html=1;exitX=1;exitY=1;exitDx=0;exitDy=0;exitPerimeter=0;" parent="1" source="2" target="24" edge="1">
          <mxGeometry relative="1" as="geometry">
            <mxPoint x="180" y="580" as="targetPoint" />
          </mxGeometry>
        </mxCell>
        <mxCell id="49" style="edgeStyle=none;html=1;exitX=1;exitY=0.3333333333333333;exitDx=0;exitDy=0;exitPerimeter=0;entryX=0;entryY=0.5;entryDx=0;entryDy=0;" parent="1" source="2" target="48" edge="1">
          <mxGeometry relative="1" as="geometry" />
        </mxCell>
        <object label="User" id="2">
          <mxCell style="shape=umlActor;verticalLabelPosition=bottom;verticalAlign=top;html=1;outlineConnect=0;" parent="1" vertex="1">
            <mxGeometry x="20" y="410" width="30" height="60" as="geometry" />
          </mxCell>
        </object>
        <mxCell id="11" value="Create Account" style="ellipse;whiteSpace=wrap;html=1;" parent="1" vertex="1">
          <mxGeometry x="230" y="180" width="120" height="80" as="geometry" />
        </mxCell>
        <mxCell id="13" value="Withdraw Funds" style="ellipse;whiteSpace=wrap;html=1;" parent="1" vertex="1">
          <mxGeometry x="290" y="600" width="120" height="80" as="geometry" />
        </mxCell>
        <mxCell id="22" value="Deposit Funds" style="ellipse;whiteSpace=wrap;html=1;" parent="1" vertex="1">
          <mxGeometry x="380" y="310" width="120" height="80" as="geometry" />
        </mxCell>
        <mxCell id="24" value="Exit" style="ellipse;whiteSpace=wrap;html=1;" parent="1" vertex="1">
          <mxGeometry x="160" y="660" width="120" height="80" as="geometry" />
        </mxCell>
        <mxCell id="39" value="Banking Application" style="text;html=1;strokeColor=none;fillColor=none;align=center;verticalAlign=middle;whiteSpace=wrap;rounded=0;" parent="1" vertex="1">
          <mxGeometry x="237.5" y="90" width="225" height="30" as="geometry" />
        </mxCell>
        <mxCell id="41" value="&lt;h1&gt;Use case name:&lt;/h1&gt;&lt;p&gt;Create account&lt;/p&gt;" style="text;html=1;strokeColor=none;fillColor=none;spacing=5;spacingTop=-20;whiteSpace=wrap;overflow=hidden;rounded=0;" parent="1" vertex="1">
          <mxGeometry x="80" y="990" width="540" height="90" as="geometry" />
        </mxCell>
        <mxCell id="43" value="&lt;h1&gt;Goal in Context:&lt;/h1&gt;&lt;div&gt;To create accounts within the banking application&lt;/div&gt;" style="text;html=1;strokeColor=none;fillColor=none;spacing=5;spacingTop=-20;whiteSpace=wrap;overflow=hidden;rounded=0;" parent="1" vertex="1">
          <mxGeometry x="80" y="1200" width="740" height="120" as="geometry" />
        </mxCell>
        <mxCell id="44" value="&lt;h1&gt;Successful End Condition:&lt;/h1&gt;&lt;div&gt;An account is made to be used with funds that can be used later and added to the account araylist.&lt;/div&gt;" style="text;html=1;strokeColor=none;fillColor=none;spacing=5;spacingTop=-20;whiteSpace=wrap;overflow=hidden;rounded=0;" parent="1" vertex="1">
          <mxGeometry x="80" y="1390" width="740" height="120" as="geometry" />
        </mxCell>
        <mxCell id="45" value="&lt;h1&gt;Precondition:&lt;/h1&gt;&lt;div&gt;To have access to the application.&lt;/div&gt;" style="text;html=1;strokeColor=none;fillColor=none;spacing=5;spacingTop=-20;whiteSpace=wrap;overflow=hidden;rounded=0;" parent="1" vertex="1">
          <mxGeometry x="80" y="1300" width="740" height="120" as="geometry" />
        </mxCell>
        <mxCell id="48" value="Transfer Funds" style="ellipse;whiteSpace=wrap;html=1;" parent="1" vertex="1">
          <mxGeometry x="322.5" y="470" width="120" height="80" as="geometry" />
        </mxCell>
        <mxCell id="55" value="&lt;h1&gt;Related Requirements:&lt;/h1&gt;&lt;div&gt;The function should be able to take the users account name and store this.&lt;/div&gt;&lt;div&gt;This function should be able to take the initial deposit and store this.&lt;/div&gt;" style="text;html=1;strokeColor=none;fillColor=none;spacing=5;spacingTop=-20;whiteSpace=wrap;overflow=hidden;rounded=0;" parent="1" vertex="1">
          <mxGeometry x="80" y="1090" width="740" height="110" as="geometry" />
        </mxCell>
        <mxCell id="56" value="&lt;h1&gt;Failed End Condition:&lt;/h1&gt;&lt;div&gt;User enters the initial deposit with string.&lt;/div&gt;" style="text;html=1;strokeColor=none;fillColor=none;spacing=5;spacingTop=-20;whiteSpace=wrap;overflow=hidden;rounded=0;" parent="1" vertex="1">
          <mxGeometry x="80" y="1490" width="740" height="120" as="geometry" />
        </mxCell>
        <mxCell id="57" value="&lt;h1&gt;Actors:&lt;/h1&gt;&lt;div&gt;User&lt;/div&gt;" style="text;html=1;strokeColor=none;fillColor=none;spacing=5;spacingTop=-20;whiteSpace=wrap;overflow=hidden;rounded=0;" parent="1" vertex="1">
          <mxGeometry x="80" y="1580" width="740" height="120" as="geometry" />
        </mxCell>
        <mxCell id="58" value="&lt;h1&gt;Triggers:&lt;/h1&gt;&lt;div&gt;When in the main menu the user presses &#39;1&#39; to trigger the event.&lt;/div&gt;" style="text;html=1;strokeColor=none;fillColor=none;spacing=5;spacingTop=-20;whiteSpace=wrap;overflow=hidden;rounded=0;" parent="1" vertex="1">
          <mxGeometry x="80" y="1680" width="740" height="120" as="geometry" />
        </mxCell>
        <mxCell id="59" value="&lt;h1&gt;Steps of Execution:&lt;/h1&gt;&lt;div&gt;1. User starts the application.&lt;/div&gt;&lt;div&gt;2. User presses &#39;1&#39; to begin the function.&lt;/div&gt;&lt;div&gt;3. User inputs account name.&lt;/div&gt;&lt;div&gt;4. An initial deposit is made to that account.&lt;/div&gt;" style="text;html=1;strokeColor=none;fillColor=none;spacing=5;spacingTop=-20;whiteSpace=wrap;overflow=hidden;rounded=0;" parent="1" vertex="1">
          <mxGeometry x="85" y="1780" width="740" height="120" as="geometry" />
        </mxCell>
        <mxCell id="72" value="" style="shape=note;whiteSpace=wrap;html=1;backgroundOutline=1;darkOpacity=0.05;fillColor=none;size=82;" parent="1" vertex="1">
          <mxGeometry x="40" y="2100" width="670" height="1020" as="geometry" />
        </mxCell>
        <mxCell id="73" value="&lt;h1&gt;Use case name:&lt;/h1&gt;&lt;p&gt;Deposit Funds&lt;/p&gt;" style="text;html=1;strokeColor=none;fillColor=none;spacing=5;spacingTop=-20;whiteSpace=wrap;overflow=hidden;rounded=0;" parent="1" vertex="1">
          <mxGeometry x="80" y="2160" width="540" height="90" as="geometry" />
        </mxCell>
        <mxCell id="74" value="&lt;h1&gt;Goal in Context:&lt;/h1&gt;&lt;div&gt;To deposit funds into an account&lt;/div&gt;" style="text;html=1;strokeColor=none;fillColor=none;spacing=5;spacingTop=-20;whiteSpace=wrap;overflow=hidden;rounded=0;" parent="1" vertex="1">
          <mxGeometry x="80" y="2370" width="740" height="120" as="geometry" />
        </mxCell>
        <mxCell id="75" value="&lt;h1&gt;Successful End Condition:&lt;/h1&gt;&lt;div&gt;The user is able to add funds to their account&lt;/div&gt;" style="text;html=1;strokeColor=none;fillColor=none;spacing=5;spacingTop=-20;whiteSpace=wrap;overflow=hidden;rounded=0;" parent="1" vertex="1">
          <mxGeometry x="80" y="2560" width="740" height="120" as="geometry" />
        </mxCell>
        <mxCell id="76" value="&lt;h1&gt;Precondition:&lt;/h1&gt;&lt;div&gt;To have an account already made&lt;/div&gt;" style="text;html=1;strokeColor=none;fillColor=none;spacing=5;spacingTop=-20;whiteSpace=wrap;overflow=hidden;rounded=0;" parent="1" vertex="1">
          <mxGeometry x="80" y="2470" width="740" height="120" as="geometry" />
        </mxCell>
        <mxCell id="77" value="&lt;h1&gt;Related Requirements:&lt;/h1&gt;&lt;div&gt;&lt;span style=&quot;background-color: initial;&quot;&gt;The user already has an account..&lt;/span&gt;&lt;br&gt;&lt;/div&gt;" style="text;html=1;strokeColor=none;fillColor=none;spacing=5;spacingTop=-20;whiteSpace=wrap;overflow=hidden;rounded=0;" parent="1" vertex="1">
          <mxGeometry x="80" y="2260" width="740" height="120" as="geometry" />
        </mxCell>
        <mxCell id="78" value="&lt;h1&gt;Failed End Condition:&lt;/h1&gt;&lt;div&gt;The account doesnt exist&lt;/div&gt;" style="text;html=1;strokeColor=none;fillColor=none;spacing=5;spacingTop=-20;whiteSpace=wrap;overflow=hidden;rounded=0;" parent="1" vertex="1">
          <mxGeometry x="80" y="2660" width="740" height="120" as="geometry" />
        </mxCell>
        <mxCell id="79" value="&lt;h1&gt;Actors:&lt;/h1&gt;&lt;div&gt;User&lt;/div&gt;" style="text;html=1;strokeColor=none;fillColor=none;spacing=5;spacingTop=-20;whiteSpace=wrap;overflow=hidden;rounded=0;" parent="1" vertex="1">
          <mxGeometry x="80" y="2750" width="740" height="120" as="geometry" />
        </mxCell>
        <mxCell id="80" value="&lt;h1&gt;Triggers:&lt;/h1&gt;&lt;div&gt;When in the main menu the user presses &#39;4&#39; to trigger the event.&lt;/div&gt;" style="text;html=1;strokeColor=none;fillColor=none;spacing=5;spacingTop=-20;whiteSpace=wrap;overflow=hidden;rounded=0;" parent="1" vertex="1">
          <mxGeometry x="80" y="2850" width="740" height="120" as="geometry" />
        </mxCell>
        <mxCell id="81" value="&lt;h1&gt;Steps of Execution:&lt;/h1&gt;&lt;div&gt;1. User starts the application.&lt;/div&gt;&lt;div&gt;2. User presses &#39;4&#39; to begin the function.&lt;/div&gt;&lt;div&gt;3. User inputs account name.&lt;/div&gt;&lt;div&gt;4. User inputs amount they would like to deposit&lt;/div&gt;" style="text;html=1;strokeColor=none;fillColor=none;spacing=5;spacingTop=-20;whiteSpace=wrap;overflow=hidden;rounded=0;" parent="1" vertex="1">
          <mxGeometry x="85" y="2950" width="740" height="120" as="geometry" />
        </mxCell>
        <mxCell id="fE3r5vND9ugYVDHuOzda-81" value="" style="shape=note;whiteSpace=wrap;html=1;backgroundOutline=1;darkOpacity=0.05;fillColor=none;size=82;" vertex="1" parent="1">
          <mxGeometry x="65" y="3200" width="670" height="1020" as="geometry" />
        </mxCell>
        <mxCell id="fE3r5vND9ugYVDHuOzda-82" value="&lt;h1&gt;Use case name:&lt;/h1&gt;&lt;p&gt;Withdraw Funds&lt;/p&gt;" style="text;html=1;strokeColor=none;fillColor=none;spacing=5;spacingTop=-20;whiteSpace=wrap;overflow=hidden;rounded=0;" vertex="1" parent="1">
          <mxGeometry x="105" y="3260" width="540" height="90" as="geometry" />
        </mxCell>
        <mxCell id="fE3r5vND9ugYVDHuOzda-83" value="&lt;h1&gt;Goal in Context:&lt;/h1&gt;&lt;div&gt;To be able to take funds out of the bank account&lt;/div&gt;" style="text;html=1;strokeColor=none;fillColor=none;spacing=5;spacingTop=-20;whiteSpace=wrap;overflow=hidden;rounded=0;" vertex="1" parent="1">
          <mxGeometry x="105" y="3470" width="740" height="120" as="geometry" />
        </mxCell>
        <mxCell id="fE3r5vND9ugYVDHuOzda-84" value="&lt;h1&gt;Successful End Condition:&lt;/h1&gt;&lt;div&gt;The user is able to take the intended funds out of the account&lt;/div&gt;" style="text;html=1;strokeColor=none;fillColor=none;spacing=5;spacingTop=-20;whiteSpace=wrap;overflow=hidden;rounded=0;" vertex="1" parent="1">
          <mxGeometry x="105" y="3660" width="740" height="120" as="geometry" />
        </mxCell>
        <mxCell id="fE3r5vND9ugYVDHuOzda-85" value="&lt;h1&gt;Precondition:&lt;/h1&gt;&lt;div&gt;User has an account which the balance of is more than is trying to be withdrawn&lt;/div&gt;" style="text;html=1;strokeColor=none;fillColor=none;spacing=5;spacingTop=-20;whiteSpace=wrap;overflow=hidden;rounded=0;" vertex="1" parent="1">
          <mxGeometry x="105" y="3570" width="740" height="120" as="geometry" />
        </mxCell>
        <mxCell id="fE3r5vND9ugYVDHuOzda-86" value="&lt;h1&gt;Related Requirements:&lt;/h1&gt;&lt;div&gt;The user already has an account&lt;/div&gt;&lt;div&gt;The user has more or the same amount of funds that they are trying to withdraw&lt;/div&gt;" style="text;html=1;strokeColor=none;fillColor=none;spacing=5;spacingTop=-20;whiteSpace=wrap;overflow=hidden;rounded=0;" vertex="1" parent="1">
          <mxGeometry x="105" y="3360" width="740" height="120" as="geometry" />
        </mxCell>
        <mxCell id="fE3r5vND9ugYVDHuOzda-87" value="&lt;h1&gt;Failed End Condition:&lt;/h1&gt;&lt;div&gt;Account doesnt exist that the user is trying to withdraw funds from&lt;/div&gt;&lt;div&gt;Not enough funds in the account to withdraw&lt;/div&gt;" style="text;html=1;strokeColor=none;fillColor=none;spacing=5;spacingTop=-20;whiteSpace=wrap;overflow=hidden;rounded=0;" vertex="1" parent="1">
          <mxGeometry x="105" y="3760" width="740" height="120" as="geometry" />
        </mxCell>
        <mxCell id="fE3r5vND9ugYVDHuOzda-88" value="&lt;h1&gt;Actors:&lt;/h1&gt;&lt;div&gt;User&lt;/div&gt;" style="text;html=1;strokeColor=none;fillColor=none;spacing=5;spacingTop=-20;whiteSpace=wrap;overflow=hidden;rounded=0;" vertex="1" parent="1">
          <mxGeometry x="105" y="3850" width="740" height="120" as="geometry" />
        </mxCell>
        <mxCell id="fE3r5vND9ugYVDHuOzda-89" value="&lt;h1&gt;Triggers:&lt;/h1&gt;&lt;div&gt;When in the main menu the user presses &#39;3&#39; to trigger the event.&lt;/div&gt;" style="text;html=1;strokeColor=none;fillColor=none;spacing=5;spacingTop=-20;whiteSpace=wrap;overflow=hidden;rounded=0;" vertex="1" parent="1">
          <mxGeometry x="105" y="3950" width="740" height="120" as="geometry" />
        </mxCell>
        <mxCell id="fE3r5vND9ugYVDHuOzda-90" value="&lt;h1&gt;Steps of Execution:&lt;/h1&gt;&lt;div&gt;1. User starts the application.&lt;/div&gt;&lt;div&gt;2. User presses &#39;3&#39; to begin the function.&lt;/div&gt;&lt;div&gt;3. User inputs account name.&lt;/div&gt;&lt;div&gt;4. User inputs amount they intend to withdraw..&lt;/div&gt;" style="text;html=1;strokeColor=none;fillColor=none;spacing=5;spacingTop=-20;whiteSpace=wrap;overflow=hidden;rounded=0;" vertex="1" parent="1">
          <mxGeometry x="110" y="4050" width="740" height="120" as="geometry" />
        </mxCell>
        <mxCell id="fE3r5vND9ugYVDHuOzda-91" value="" style="shape=note;whiteSpace=wrap;html=1;backgroundOutline=1;darkOpacity=0.05;fillColor=none;size=82;" vertex="1" parent="1">
          <mxGeometry x="65" y="4300" width="670" height="1020" as="geometry" />
        </mxCell>
        <mxCell id="fE3r5vND9ugYVDHuOzda-92" value="&lt;h1&gt;Use case name:&lt;/h1&gt;&lt;p&gt;Transfer Funds&lt;/p&gt;" style="text;html=1;strokeColor=none;fillColor=none;spacing=5;spacingTop=-20;whiteSpace=wrap;overflow=hidden;rounded=0;" vertex="1" parent="1">
          <mxGeometry x="105" y="4360" width="540" height="90" as="geometry" />
        </mxCell>
        <mxCell id="fE3r5vND9ugYVDHuOzda-93" value="&lt;h1&gt;Goal in Context:&lt;/h1&gt;&lt;div&gt;To be able to transfer funds from one bank account to the other&lt;/div&gt;" style="text;html=1;strokeColor=none;fillColor=none;spacing=5;spacingTop=-20;whiteSpace=wrap;overflow=hidden;rounded=0;" vertex="1" parent="1">
          <mxGeometry x="105" y="4570" width="740" height="120" as="geometry" />
        </mxCell>
        <mxCell id="fE3r5vND9ugYVDHuOzda-94" value="&lt;h1&gt;Successful End Condition:&lt;/h1&gt;&lt;div&gt;The user successfully sends funds to the receivers account&lt;/div&gt;" style="text;html=1;strokeColor=none;fillColor=none;spacing=5;spacingTop=-20;whiteSpace=wrap;overflow=hidden;rounded=0;" vertex="1" parent="1">
          <mxGeometry x="105" y="4760" width="740" height="120" as="geometry" />
        </mxCell>
        <mxCell id="fE3r5vND9ugYVDHuOzda-95" value="&lt;h1&gt;Precondition:&lt;/h1&gt;&lt;div&gt;Users sending account has more or the same amount than is trying to be sent&lt;/div&gt;&lt;div&gt;There are two accounts made to send funds between&lt;/div&gt;" style="text;html=1;strokeColor=none;fillColor=none;spacing=5;spacingTop=-20;whiteSpace=wrap;overflow=hidden;rounded=0;" vertex="1" parent="1">
          <mxGeometry x="105" y="4670" width="740" height="120" as="geometry" />
        </mxCell>
        <mxCell id="fE3r5vND9ugYVDHuOzda-96" value="&lt;h1&gt;Related Requirements:&lt;/h1&gt;&lt;div&gt;The user already has two accounts to send and receive the funds&lt;/div&gt;&lt;div&gt;There&#39;s enough funds in the account to send to the receiving account&lt;/div&gt;" style="text;html=1;strokeColor=none;fillColor=none;spacing=5;spacingTop=-20;whiteSpace=wrap;overflow=hidden;rounded=0;" vertex="1" parent="1">
          <mxGeometry x="105" y="4460" width="740" height="120" as="geometry" />
        </mxCell>
        <mxCell id="fE3r5vND9ugYVDHuOzda-97" value="&lt;h1&gt;Failed End Condition:&lt;/h1&gt;&lt;div&gt;Account doesnt exist that the user is trying to send or receive funds&amp;nbsp;&lt;/div&gt;&lt;div&gt;Not enough funds in the senders account&lt;/div&gt;" style="text;html=1;strokeColor=none;fillColor=none;spacing=5;spacingTop=-20;whiteSpace=wrap;overflow=hidden;rounded=0;" vertex="1" parent="1">
          <mxGeometry x="105" y="4860" width="740" height="120" as="geometry" />
        </mxCell>
        <mxCell id="fE3r5vND9ugYVDHuOzda-98" value="&lt;h1&gt;Actors:&lt;/h1&gt;&lt;div&gt;User&lt;/div&gt;" style="text;html=1;strokeColor=none;fillColor=none;spacing=5;spacingTop=-20;whiteSpace=wrap;overflow=hidden;rounded=0;" vertex="1" parent="1">
          <mxGeometry x="105" y="4950" width="740" height="120" as="geometry" />
        </mxCell>
        <mxCell id="fE3r5vND9ugYVDHuOzda-99" value="&lt;h1&gt;Triggers:&lt;/h1&gt;&lt;div&gt;When in the main menu the user presses &#39;3&#39; to trigger the event.&lt;/div&gt;" style="text;html=1;strokeColor=none;fillColor=none;spacing=5;spacingTop=-20;whiteSpace=wrap;overflow=hidden;rounded=0;" vertex="1" parent="1">
          <mxGeometry x="105" y="5050" width="740" height="120" as="geometry" />
        </mxCell>
        <mxCell id="fE3r5vND9ugYVDHuOzda-100" value="&lt;h1&gt;Steps of Execution:&lt;/h1&gt;&lt;div&gt;1. User starts the application.&lt;/div&gt;&lt;div&gt;2. User presses &#39;5&#39; to begin the function.&lt;/div&gt;&lt;div&gt;3. User inputs senders account name.&lt;/div&gt;&lt;div&gt;4. User inputs receivers account name.&lt;/div&gt;&lt;div&gt;5. User inputs how much to send across...&lt;/div&gt;" style="text;html=1;strokeColor=none;fillColor=none;spacing=5;spacingTop=-20;whiteSpace=wrap;overflow=hidden;rounded=0;" vertex="1" parent="1">
          <mxGeometry x="110" y="5150" width="740" height="120" as="geometry" />
        </mxCell>
      </root>
    </mxGraphModel>
  </diagram>
</mxfile>
